<svg width="88" height="42" viewBox="0 0 88 42" fill="none" xmlns="http://www.w3.org/2000/svg">
<path d="M76.5705 17.5585C74.1864 16.3889 71.4284 16.0368 70.6805 15.6622L76.0096 15.1706H79.5155C80.6608 15.3344 81.9697 15.3813 84.4239 17.1371C85.2653 17.9799 86.219 18.7806 86.9482 20.5786C87.6775 22.3766 88 23.4582 88 24.7926C87.8598 28.6555 82.5307 32.5886 80.0064 26.1271C79.1009 23.8094 80.0064 19.2441 76.5705 17.5585Z" fill="#27374D"/>
<path d="M52.1689 33.2207C52.1689 38.0694 48.5587 42 44.1052 42C39.6517 42 36.0414 38.0694 36.0414 33.2207C36.0414 28.3721 39.6517 24.4415 44.1052 24.4415C48.5587 24.4415 52.1689 28.3721 52.1689 33.2207Z" fill="#27374D"/>
<path d="M29.1697 26.5485C18.792 27.7284 11.71 20.8595 9.53625 17.1371C31.4837 23.3177 43.1235 20.0167 49.2239 20.0167C50.488 20.0167 53.9219 20.3679 56.8669 20.8595C63.9314 22.0389 66.5434 31.6756 66.3331 33.1505C64.9085 43.1386 54.6231 38.6288 54.1323 34.6254C53.2908 31.9565 55.3243 23.8094 46.9801 22.8261C38.6359 21.8428 39.5474 25.3686 29.1697 26.5485Z" fill="#27374D"/>
<path d="M47.4008 17.9968C30.0813 19.6824 26.6454 18.3011 21.4566 17.3647C26.7389 16.2878 33.3769 10.7627 56.7267 11.6055L59.5315 12.0803L62.196 13.0804L67.3147 14.8363L72.9243 18.2075C73.5086 18.2543 76.7108 18.2075 77.2016 20.8062L77.9729 26.6356C78.1833 27.1038 79.8661 29.445 79.3052 30.9901L76.29 32.746C74.8175 33.5888 69.6287 36.047 68.9976 32.9567C66.8473 26.6122 64.7203 16.3112 47.4008 17.9968Z" fill="#27374D"/>
<path d="M70.2919 31.2777C70.1967 31.005 70.3402 30.7067 70.6124 30.6113L76.9047 28.4068C77.1769 28.3114 77.4748 28.4551 77.57 28.7278C77.6652 29.0004 77.5217 29.2987 77.2495 29.3941L70.9572 31.5987C70.685 31.694 70.3871 31.5503 70.2919 31.2777Z" fill="white"/>
<path d="M68.8895 28.4683C68.7943 28.1957 68.9378 27.8973 69.21 27.802L75.5023 25.5974C75.7745 25.5021 76.0724 25.6458 76.1676 25.9184C76.2628 26.1911 76.1193 26.4894 75.8471 26.5847L69.5548 28.7893C69.2826 28.8847 68.9847 28.7409 68.8895 28.4683Z" fill="white"/>
<path d="M69.5907 29.873C69.4955 29.6003 69.639 29.302 69.9112 29.2066L76.2035 27.0021C76.4757 26.9067 76.7736 27.0505 76.8688 27.3231C76.964 27.5957 76.8205 27.8941 76.5483 27.9894L70.256 30.194C69.9838 30.2893 69.6859 30.1456 69.5907 29.873Z" fill="white"/>
<path d="M63.8957 30.2935C64.8823 33.1375 64.0846 35.999 62.1142 36.6848C60.1437 37.3705 57.7465 35.6208 56.76 32.7768C55.7735 29.9327 56.5711 27.0712 58.5416 26.3855C60.512 25.6997 62.9092 27.4494 63.8957 30.2935Z" fill="white"/>
<path d="M63.096 30.8915C63.6551 32.6695 63.1131 34.4248 61.8854 34.812C60.6578 35.1993 59.2095 34.0719 58.6505 32.2939C58.0914 30.5159 58.6334 28.7607 59.861 28.3734C61.0887 27.9862 62.537 29.1136 63.096 30.8915Z" fill="#27374D"/>
<path d="M86.5797 22.481C87.2586 24.6566 86.5655 26.8095 85.0317 27.2897C83.4978 27.7699 81.7041 26.3955 81.0252 24.2199C80.3464 22.0444 81.0394 19.8914 82.5733 19.4113C84.1071 18.9311 85.9009 20.3055 86.5797 22.481Z" fill="white"/>
<path d="M86.0766 23.2917C86.4031 24.5962 85.9278 25.8395 85.015 26.0687C84.1022 26.2978 83.0976 25.4261 82.7712 24.1216C82.4447 22.8172 82.92 21.5739 83.8328 21.3447C84.7456 21.1156 85.7502 21.9873 86.0766 23.2917Z" fill="#27374D"/>
<path d="M22.6486 15.039C26.996 2.6778 9.86348 3.02897 0 4.99552C32.9562 -7.01451 47.2606 5.90856 50.4861 9.77145C32.8159 9.77145 22.3909 15.7717 22.6486 15.039Z" fill="#27374D"/>
<path d="M20.4749 4.92388C20.4749 4.92388 24.7522 7.31184 24.8223 13.1413C27.9076 11.1045 44.4558 8.92723 45.7179 8.78676C46.9801 8.64629 46.6996 7.75666 46.2789 7.45231L42.7729 5.27505L38.2853 3.0978C36.8829 2.25499 20.8255 3.37873 20.4749 4.92388Z" fill="white"/>
</svg>
